<?xml version="1.0" standalone="no"?>
<!DOCTYPE svg PUBLIC "-//W3C//DTD SVG 20010904//EN"
 "http://www.w3.org/TR/2001/REC-SVG-20010904/DTD/svg10.dtd">
<svg version="1.0" xmlns="http://www.w3.org/2000/svg"
 width="300.000000pt" height="300.000000pt" viewBox="0 0 300.000000 300.000000"
 preserveAspectRatio="xMidYMid meet">
<metadata>
Created by potrace 1.14, written by Peter Selinger 2001-2017
</metadata>
<g transform="translate(0.000000,300.000000) scale(0.100000,-0.100000)"
fill="#000000" stroke="none">
<path d="M1390 2694 c-212 -135 -398 -255 -414 -267 -27 -20 -199 -158 -291
-232 -22 -18 -131 -105 -242 -194 -112 -89 -203 -166 -203 -173 0 -6 9 -31 21
-55 22 -46 42 -53 75 -28 10 8 22 15 27 15 4 0 7 -223 7 -497 0 -275 3 -500 8
-505 5 -5 58 -24 118 -42 60 -18 330 -99 601 -180 l492 -148 24 24 c13 12 35
32 48 43 177 147 325 271 329 275 3 3 30 25 60 50 30 25 64 53 75 62 11 9 81
68 155 130 l135 113 0 449 0 448 75 69 c41 38 78 69 83 69 34 0 -42 84 -386
428 -216 215 -397 392 -402 392 -6 0 -183 -111 -395 -246z"/>
</g>
</svg>
